<mxfile host="app.diagrams.net" agent="Mozilla/5.0 (Windows NT 10.0; Win64; x64) AppleWebKit/537.36 (KHTML, like Gecko) Chrome/127.0.0.0 Safari/537.36" version="24.7.6">
  <diagram name="Page-1" id="aMV5I71VGonIUbQJCdbF">
    <mxGraphModel dx="1135" dy="2235" grid="1" gridSize="10" guides="1" tooltips="1" connect="1" arrows="1" fold="1" page="1" pageScale="1" pageWidth="850" pageHeight="1100" math="0" shadow="0">
      <root>
        <mxCell id="0" />
        <mxCell id="1" parent="0" />
        <mxCell id="DsfY3s6e81VrVdrhE0-I-158" style="edgeStyle=orthogonalEdgeStyle;rounded=0;orthogonalLoop=1;jettySize=auto;html=1;entryX=0;entryY=0.5;entryDx=0;entryDy=0;" parent="1" target="DsfY3s6e81VrVdrhE0-I-159" edge="1">
          <mxGeometry relative="1" as="geometry">
            <mxPoint x="1155" y="378.5" as="sourcePoint" />
            <Array as="points">
              <mxPoint x="1155" y="278.5" />
            </Array>
          </mxGeometry>
        </mxCell>
        <mxCell id="DsfY3s6e81VrVdrhE0-I-248" style="edgeStyle=orthogonalEdgeStyle;rounded=0;orthogonalLoop=1;jettySize=auto;html=1;exitX=1;exitY=0.25;exitDx=0;exitDy=0;entryX=0;entryY=0.25;entryDx=0;entryDy=0;" parent="1" target="DsfY3s6e81VrVdrhE0-I-250" edge="1">
          <mxGeometry relative="1" as="geometry">
            <mxPoint x="1490" y="430" as="targetPoint" />
            <mxPoint x="1275" y="273.5" as="sourcePoint" />
          </mxGeometry>
        </mxCell>
        <mxCell id="DsfY3s6e81VrVdrhE0-I-159" value="Q" style="whiteSpace=wrap;html=1;aspect=fixed;" parent="1" vertex="1">
          <mxGeometry x="1175" y="228.5" width="100" height="100" as="geometry" />
        </mxCell>
        <mxCell id="DsfY3s6e81VrVdrhE0-I-160" style="edgeStyle=orthogonalEdgeStyle;rounded=0;orthogonalLoop=1;jettySize=auto;html=1;entryX=0;entryY=0.25;entryDx=0;entryDy=0;" parent="1" target="DsfY3s6e81VrVdrhE0-I-162" edge="1">
          <mxGeometry relative="1" as="geometry">
            <mxPoint x="1025" y="438.5" as="sourcePoint" />
          </mxGeometry>
        </mxCell>
        <mxCell id="DsfY3s6e81VrVdrhE0-I-161" style="edgeStyle=orthogonalEdgeStyle;rounded=0;orthogonalLoop=1;jettySize=auto;html=1;exitX=0;exitY=0.5;exitDx=0;exitDy=0;entryX=0;entryY=0.5;entryDx=0;entryDy=0;" parent="1" target="DsfY3s6e81VrVdrhE0-I-162" edge="1">
          <mxGeometry relative="1" as="geometry">
            <mxPoint x="1135" y="548.5000000000002" as="sourcePoint" />
            <Array as="points">
              <mxPoint x="1135" y="462.5" />
            </Array>
          </mxGeometry>
        </mxCell>
        <mxCell id="DsfY3s6e81VrVdrhE0-I-258" style="edgeStyle=orthogonalEdgeStyle;rounded=0;orthogonalLoop=1;jettySize=auto;html=1;exitX=1;exitY=0.5;exitDx=0;exitDy=0;entryX=0.5;entryY=1;entryDx=0;entryDy=0;" parent="1" source="DsfY3s6e81VrVdrhE0-I-162" target="DsfY3s6e81VrVdrhE0-I-256" edge="1">
          <mxGeometry relative="1" as="geometry">
            <mxPoint x="1791.111043294271" y="500" as="targetPoint" />
            <Array as="points">
              <mxPoint x="1340" y="463" />
              <mxPoint x="1340" y="490" />
              <mxPoint x="1787" y="490" />
            </Array>
          </mxGeometry>
        </mxCell>
        <mxCell id="DsfY3s6e81VrVdrhE0-I-278" style="edgeStyle=orthogonalEdgeStyle;rounded=0;orthogonalLoop=1;jettySize=auto;html=1;exitX=1;exitY=0.5;exitDx=0;exitDy=0;" parent="1" source="DsfY3s6e81VrVdrhE0-I-162" edge="1">
          <mxGeometry relative="1" as="geometry">
            <mxPoint x="2070" y="440" as="targetPoint" />
            <Array as="points">
              <mxPoint x="1340" y="463" />
              <mxPoint x="1340" y="491" />
              <mxPoint x="2031" y="491" />
            </Array>
          </mxGeometry>
        </mxCell>
        <mxCell id="DsfY3s6e81VrVdrhE0-I-162" value="M" style="whiteSpace=wrap;html=1;aspect=fixed;" parent="1" vertex="1">
          <mxGeometry x="1176.25" y="414" width="97.5" height="97.5" as="geometry" />
        </mxCell>
        <mxCell id="DsfY3s6e81VrVdrhE0-I-163" style="edgeStyle=orthogonalEdgeStyle;rounded=0;orthogonalLoop=1;jettySize=auto;html=1;entryX=0;entryY=0.5;entryDx=0;entryDy=0;" parent="1" target="DsfY3s6e81VrVdrhE0-I-165" edge="1">
          <mxGeometry relative="1" as="geometry">
            <mxPoint x="1150" y="720" as="sourcePoint" />
            <Array as="points">
              <mxPoint x="1150" y="654" />
            </Array>
          </mxGeometry>
        </mxCell>
        <mxCell id="DsfY3s6e81VrVdrhE0-I-249" style="edgeStyle=orthogonalEdgeStyle;rounded=0;orthogonalLoop=1;jettySize=auto;html=1;exitX=1;exitY=0.25;exitDx=0;exitDy=0;entryX=-0.001;entryY=0.621;entryDx=0;entryDy=0;entryPerimeter=0;" parent="1" source="DsfY3s6e81VrVdrhE0-I-165" target="DsfY3s6e81VrVdrhE0-I-250" edge="1">
          <mxGeometry relative="1" as="geometry">
            <mxPoint x="1490" y="454.83870967741933" as="targetPoint" />
          </mxGeometry>
        </mxCell>
        <mxCell id="DsfY3s6e81VrVdrhE0-I-165" value="A" style="whiteSpace=wrap;html=1;aspect=fixed;" parent="1" vertex="1">
          <mxGeometry x="1177.5" y="606.5" width="95" height="95" as="geometry" />
        </mxCell>
        <mxCell id="DsfY3s6e81VrVdrhE0-I-166" value="" style="endArrow=none;html=1;rounded=0;" parent="1" edge="1">
          <mxGeometry width="50" height="50" relative="1" as="geometry">
            <mxPoint x="1175" y="318.5" as="sourcePoint" />
            <mxPoint x="1195" y="308.5" as="targetPoint" />
          </mxGeometry>
        </mxCell>
        <mxCell id="DsfY3s6e81VrVdrhE0-I-167" value="" style="endArrow=none;html=1;rounded=0;" parent="1" edge="1">
          <mxGeometry width="50" height="50" relative="1" as="geometry">
            <mxPoint x="1175" y="298.5" as="sourcePoint" />
            <mxPoint x="1195" y="308.5" as="targetPoint" />
          </mxGeometry>
        </mxCell>
        <mxCell id="DsfY3s6e81VrVdrhE0-I-168" value="" style="endArrow=none;html=1;rounded=0;" parent="1" edge="1">
          <mxGeometry width="50" height="50" relative="1" as="geometry">
            <mxPoint x="1177.5" y="488.5" as="sourcePoint" />
            <mxPoint x="1197.5" y="498.5" as="targetPoint" />
          </mxGeometry>
        </mxCell>
        <mxCell id="DsfY3s6e81VrVdrhE0-I-169" value="" style="endArrow=none;html=1;rounded=0;" parent="1" edge="1">
          <mxGeometry width="50" height="50" relative="1" as="geometry">
            <mxPoint x="1177.5" y="508.5" as="sourcePoint" />
            <mxPoint x="1197.5" y="498.5" as="targetPoint" />
          </mxGeometry>
        </mxCell>
        <mxCell id="DsfY3s6e81VrVdrhE0-I-170" value="" style="endArrow=none;html=1;rounded=0;" parent="1" edge="1">
          <mxGeometry width="50" height="50" relative="1" as="geometry">
            <mxPoint x="1177.5" y="698.5" as="sourcePoint" />
            <mxPoint x="1197.5" y="688.5" as="targetPoint" />
          </mxGeometry>
        </mxCell>
        <mxCell id="DsfY3s6e81VrVdrhE0-I-171" value="" style="endArrow=none;html=1;rounded=0;" parent="1" edge="1">
          <mxGeometry width="50" height="50" relative="1" as="geometry">
            <mxPoint x="1177.5" y="678.5" as="sourcePoint" />
            <mxPoint x="1197.5" y="688.5" as="targetPoint" />
          </mxGeometry>
        </mxCell>
        <mxCell id="DsfY3s6e81VrVdrhE0-I-174" value="" style="endArrow=none;html=1;rounded=0;" parent="1" edge="1">
          <mxGeometry width="50" height="50" relative="1" as="geometry">
            <mxPoint x="1305" y="472.75" as="sourcePoint" />
            <mxPoint x="1325" y="452.75" as="targetPoint" />
          </mxGeometry>
        </mxCell>
        <mxCell id="DsfY3s6e81VrVdrhE0-I-175" value="16" style="text;html=1;align=center;verticalAlign=middle;resizable=0;points=[];autosize=1;strokeColor=none;fillColor=none;" parent="1" vertex="1">
          <mxGeometry x="1305" y="428.5" width="40" height="30" as="geometry" />
        </mxCell>
        <mxCell id="DsfY3s6e81VrVdrhE0-I-176" value="" style="endArrow=none;html=1;rounded=0;" parent="1" edge="1">
          <mxGeometry width="50" height="50" relative="1" as="geometry">
            <mxPoint x="1305" y="638.5" as="sourcePoint" />
            <mxPoint x="1325" y="618.5" as="targetPoint" />
          </mxGeometry>
        </mxCell>
        <mxCell id="DsfY3s6e81VrVdrhE0-I-177" value="16" style="text;html=1;align=center;verticalAlign=middle;resizable=0;points=[];autosize=1;strokeColor=none;fillColor=none;" parent="1" vertex="1">
          <mxGeometry x="1305" y="596.5" width="40" height="30" as="geometry" />
        </mxCell>
        <mxCell id="DsfY3s6e81VrVdrhE0-I-183" value="" style="endArrow=none;html=1;rounded=0;" parent="1" edge="1">
          <mxGeometry width="50" height="50" relative="1" as="geometry">
            <mxPoint x="1310" y="286" as="sourcePoint" />
            <mxPoint x="1330" y="266" as="targetPoint" />
          </mxGeometry>
        </mxCell>
        <mxCell id="DsfY3s6e81VrVdrhE0-I-184" value="16" style="text;html=1;align=center;verticalAlign=middle;resizable=0;points=[];autosize=1;strokeColor=none;fillColor=none;" parent="1" vertex="1">
          <mxGeometry x="1310" y="244" width="40" height="30" as="geometry" />
        </mxCell>
        <mxCell id="DsfY3s6e81VrVdrhE0-I-185" value="dividend" style="text;html=1;align=center;verticalAlign=middle;resizable=0;points=[];autosize=1;strokeColor=none;fillColor=none;" parent="1" vertex="1">
          <mxGeometry x="955" y="228.5" width="70" height="30" as="geometry" />
        </mxCell>
        <mxCell id="DsfY3s6e81VrVdrhE0-I-186" value="divisor" style="text;html=1;align=center;verticalAlign=middle;resizable=0;points=[];autosize=1;strokeColor=none;fillColor=none;" parent="1" vertex="1">
          <mxGeometry x="960" y="419.5" width="60" height="30" as="geometry" />
        </mxCell>
        <mxCell id="DsfY3s6e81VrVdrhE0-I-187" style="edgeStyle=orthogonalEdgeStyle;rounded=0;orthogonalLoop=1;jettySize=auto;html=1;exitX=0;exitY=0.19029850746268656;exitDx=0;exitDy=3;exitPerimeter=0;entryX=0;entryY=0.19029850746268656;entryDx=0;entryDy=3;entryPerimeter=0;" parent="1" target="DsfY3s6e81VrVdrhE0-I-189" edge="1">
          <mxGeometry relative="1" as="geometry">
            <mxPoint x="1025" y="245.29365079365084" as="sourcePoint" />
          </mxGeometry>
        </mxCell>
        <mxCell id="DsfY3s6e81VrVdrhE0-I-188" style="edgeStyle=orthogonalEdgeStyle;rounded=0;orthogonalLoop=1;jettySize=auto;html=1;exitX=0.2777777777777778;exitY=1;exitDx=10;exitDy=0;exitPerimeter=0;entryX=0.2777777777777778;entryY=1;entryDx=10;entryDy=0;entryPerimeter=0;" parent="1" target="DsfY3s6e81VrVdrhE0-I-189" edge="1">
          <mxGeometry relative="1" as="geometry">
            <mxPoint x="1130.081967213115" y="318.5" as="sourcePoint" />
          </mxGeometry>
        </mxCell>
        <mxCell id="DsfY3s6e81VrVdrhE0-I-279" style="edgeStyle=orthogonalEdgeStyle;rounded=0;orthogonalLoop=1;jettySize=auto;html=1;entryX=0;entryY=0.5708955223880596;entryDx=0;entryDy=3;entryPerimeter=0;exitX=0.89;exitY=-0.09;exitDx=0;exitDy=0;exitPerimeter=0;" parent="1" source="DsfY3s6e81VrVdrhE0-I-272" target="DsfY3s6e81VrVdrhE0-I-189" edge="1">
          <mxGeometry relative="1" as="geometry">
            <mxPoint x="2180" y="380" as="sourcePoint" />
            <Array as="points">
              <mxPoint x="2180" y="377" />
              <mxPoint x="2180" y="210" />
              <mxPoint x="1088" y="210" />
              <mxPoint x="1088" y="271" />
            </Array>
          </mxGeometry>
        </mxCell>
        <mxCell id="DsfY3s6e81VrVdrhE0-I-189" value="Mux" style="shadow=0;dashed=0;align=center;html=1;strokeWidth=1;shape=mxgraph.electrical.abstract.mux2;whiteSpace=wrap;" parent="1" vertex="1">
          <mxGeometry x="1107.5" y="229.5" width="45" height="67" as="geometry" />
        </mxCell>
        <mxCell id="DsfY3s6e81VrVdrhE0-I-190" value="" style="endArrow=none;html=1;rounded=0;" parent="1" edge="1">
          <mxGeometry width="50" height="50" relative="1" as="geometry">
            <mxPoint x="1055" y="258.5" as="sourcePoint" />
            <mxPoint x="1075" y="238.5" as="targetPoint" />
          </mxGeometry>
        </mxCell>
        <mxCell id="DsfY3s6e81VrVdrhE0-I-191" value="16" style="text;html=1;align=center;verticalAlign=middle;resizable=0;points=[];autosize=1;strokeColor=none;fillColor=none;" parent="1" vertex="1">
          <mxGeometry x="1045" y="216.5" width="40" height="30" as="geometry" />
        </mxCell>
        <mxCell id="DsfY3s6e81VrVdrhE0-I-192" value="" style="endArrow=none;html=1;rounded=0;" parent="1" edge="1">
          <mxGeometry width="50" height="50" relative="1" as="geometry">
            <mxPoint x="1055" y="448.5" as="sourcePoint" />
            <mxPoint x="1075" y="428.5" as="targetPoint" />
          </mxGeometry>
        </mxCell>
        <mxCell id="DsfY3s6e81VrVdrhE0-I-193" value="16" style="text;html=1;align=center;verticalAlign=middle;resizable=0;points=[];autosize=1;strokeColor=none;fillColor=none;" parent="1" vertex="1">
          <mxGeometry x="1045" y="406.5" width="40" height="30" as="geometry" />
        </mxCell>
        <mxCell id="DsfY3s6e81VrVdrhE0-I-194" style="edgeStyle=orthogonalEdgeStyle;rounded=0;orthogonalLoop=1;jettySize=auto;html=1;exitX=1;exitY=0.5;exitDx=0;exitDy=-5;exitPerimeter=0;entryX=0;entryY=0.295;entryDx=0;entryDy=0;entryPerimeter=0;" parent="1" source="DsfY3s6e81VrVdrhE0-I-189" target="DsfY3s6e81VrVdrhE0-I-159" edge="1">
          <mxGeometry relative="1" as="geometry" />
        </mxCell>
        <mxCell id="DsfY3s6e81VrVdrhE0-I-200" value="[31:16]" style="text;html=1;align=center;verticalAlign=middle;resizable=0;points=[];autosize=1;strokeColor=none;fillColor=none;" parent="1" vertex="1">
          <mxGeometry x="1000" y="630" width="60" height="30" as="geometry" />
        </mxCell>
        <mxCell id="DsfY3s6e81VrVdrhE0-I-207" value="en_Q" style="text;html=1;align=center;verticalAlign=middle;resizable=0;points=[];autosize=1;strokeColor=none;fillColor=none;" parent="1" vertex="1">
          <mxGeometry x="1130" y="376.5" width="50" height="30" as="geometry" />
        </mxCell>
        <mxCell id="DsfY3s6e81VrVdrhE0-I-208" value="sel_Q" style="text;html=1;align=center;verticalAlign=middle;resizable=0;points=[];autosize=1;strokeColor=none;fillColor=none;" parent="1" vertex="1">
          <mxGeometry x="1100" y="316.5" width="50" height="30" as="geometry" />
        </mxCell>
        <mxCell id="DsfY3s6e81VrVdrhE0-I-210" style="edgeStyle=orthogonalEdgeStyle;rounded=0;orthogonalLoop=1;jettySize=auto;html=1;exitX=0;exitY=0.5;exitDx=0;exitDy=0;entryX=0;entryY=0.5;entryDx=0;entryDy=0;" parent="1" target="DsfY3s6e81VrVdrhE0-I-211" edge="1">
          <mxGeometry relative="1" as="geometry">
            <mxPoint x="1415" y="664.2258064516129" as="sourcePoint" />
          </mxGeometry>
        </mxCell>
        <mxCell id="DsfY3s6e81VrVdrhE0-I-211" value="+" style="ellipse;whiteSpace=wrap;html=1;aspect=fixed;" parent="1" vertex="1">
          <mxGeometry x="1445" y="644" width="40" height="40" as="geometry" />
        </mxCell>
        <mxCell id="DsfY3s6e81VrVdrhE0-I-296" style="edgeStyle=orthogonalEdgeStyle;rounded=0;orthogonalLoop=1;jettySize=auto;html=1;exitX=0;exitY=0.5;exitDx=0;exitDy=0;entryX=0;entryY=0.5;entryDx=0;entryDy=0;" parent="1" target="DsfY3s6e81VrVdrhE0-I-213" edge="1">
          <mxGeometry relative="1" as="geometry">
            <mxPoint x="1560" y="804.5283018867925" as="sourcePoint" />
            <Array as="points">
              <mxPoint x="1560" y="691" />
            </Array>
          </mxGeometry>
        </mxCell>
        <mxCell id="DsfY3s6e81VrVdrhE0-I-213" value="Counter" style="whiteSpace=wrap;html=1;aspect=fixed;" parent="1" vertex="1">
          <mxGeometry x="1622.5" y="644" width="95" height="95" as="geometry" />
        </mxCell>
        <mxCell id="DsfY3s6e81VrVdrhE0-I-214" value="" style="endArrow=none;html=1;rounded=0;" parent="1" edge="1">
          <mxGeometry width="50" height="50" relative="1" as="geometry">
            <mxPoint x="1622.5" y="736" as="sourcePoint" />
            <mxPoint x="1642.5" y="726" as="targetPoint" />
          </mxGeometry>
        </mxCell>
        <mxCell id="DsfY3s6e81VrVdrhE0-I-215" value="" style="endArrow=none;html=1;rounded=0;" parent="1" edge="1">
          <mxGeometry width="50" height="50" relative="1" as="geometry">
            <mxPoint x="1622.5" y="716" as="sourcePoint" />
            <mxPoint x="1642.5" y="726" as="targetPoint" />
          </mxGeometry>
        </mxCell>
        <mxCell id="DsfY3s6e81VrVdrhE0-I-218" style="edgeStyle=orthogonalEdgeStyle;rounded=0;orthogonalLoop=1;jettySize=auto;html=1;exitX=0.3;exitY=1;exitDx=10;exitDy=0;exitPerimeter=0;entryX=0.3;entryY=1;entryDx=10;entryDy=0;entryPerimeter=0;" parent="1" target="DsfY3s6e81VrVdrhE0-I-220" edge="1">
          <mxGeometry relative="1" as="geometry">
            <mxPoint x="1535" y="754" as="sourcePoint" />
          </mxGeometry>
        </mxCell>
        <mxCell id="DsfY3s6e81VrVdrhE0-I-219" style="edgeStyle=orthogonalEdgeStyle;rounded=0;orthogonalLoop=1;jettySize=auto;html=1;exitX=0;exitY=0.5785714285714286;exitDx=0;exitDy=3;exitPerimeter=0;entryX=0;entryY=0.5785714285714286;entryDx=0;entryDy=3;entryPerimeter=0;" parent="1" target="DsfY3s6e81VrVdrhE0-I-220" edge="1">
          <mxGeometry relative="1" as="geometry">
            <mxPoint x="1455" y="689.3333333333335" as="sourcePoint" />
          </mxGeometry>
        </mxCell>
        <mxCell id="DsfY3s6e81VrVdrhE0-I-220" value="Mux" style="shadow=0;dashed=0;align=center;html=1;strokeWidth=1;shape=mxgraph.electrical.abstract.mux2;whiteSpace=wrap;" parent="1" vertex="1">
          <mxGeometry x="1510" y="646" width="50" height="70" as="geometry" />
        </mxCell>
        <mxCell id="DsfY3s6e81VrVdrhE0-I-221" style="edgeStyle=orthogonalEdgeStyle;rounded=0;orthogonalLoop=1;jettySize=auto;html=1;exitX=1;exitY=0.5;exitDx=0;exitDy=-5;exitPerimeter=0;entryX=0.012;entryY=0.336;entryDx=0;entryDy=0;entryPerimeter=0;" parent="1" source="DsfY3s6e81VrVdrhE0-I-220" target="DsfY3s6e81VrVdrhE0-I-213" edge="1">
          <mxGeometry relative="1" as="geometry" />
        </mxCell>
        <mxCell id="DsfY3s6e81VrVdrhE0-I-222" style="edgeStyle=orthogonalEdgeStyle;rounded=0;orthogonalLoop=1;jettySize=auto;html=1;exitX=1.027;exitY=0.453;exitDx=0;exitDy=0;exitPerimeter=0;entryX=0;entryY=0.19285714285714287;entryDx=0;entryDy=3;entryPerimeter=0;" parent="1" source="DsfY3s6e81VrVdrhE0-I-211" target="DsfY3s6e81VrVdrhE0-I-220" edge="1">
          <mxGeometry relative="1" as="geometry" />
        </mxCell>
        <mxCell id="DsfY3s6e81VrVdrhE0-I-223" style="edgeStyle=orthogonalEdgeStyle;rounded=0;orthogonalLoop=1;jettySize=auto;html=1;exitX=0.5;exitY=0;exitDx=0;exitDy=0;entryX=0.5;entryY=0;entryDx=0;entryDy=0;" parent="1" target="DsfY3s6e81VrVdrhE0-I-224" edge="1">
          <mxGeometry relative="1" as="geometry">
            <mxPoint x="1785.135135135135" y="624" as="sourcePoint" />
          </mxGeometry>
        </mxCell>
        <mxCell id="DsfY3s6e81VrVdrhE0-I-317" style="edgeStyle=orthogonalEdgeStyle;rounded=0;orthogonalLoop=1;jettySize=auto;html=1;exitX=1;exitY=0.5;exitDx=0;exitDy=0;entryX=1;entryY=0.383;entryDx=0;entryDy=0;entryPerimeter=0;" parent="1" source="DsfY3s6e81VrVdrhE0-I-224" target="DsfY3s6e81VrVdrhE0-I-315" edge="1">
          <mxGeometry relative="1" as="geometry">
            <mxPoint x="2260.33349609375" y="930" as="targetPoint" />
            <Array as="points">
              <mxPoint x="2260" y="674" />
              <mxPoint x="2260" y="930" />
            </Array>
          </mxGeometry>
        </mxCell>
        <mxCell id="DsfY3s6e81VrVdrhE0-I-224" value="==" style="ellipse;whiteSpace=wrap;html=1;aspect=fixed;" parent="1" vertex="1">
          <mxGeometry x="1765" y="654" width="40" height="40" as="geometry" />
        </mxCell>
        <mxCell id="DsfY3s6e81VrVdrhE0-I-225" value="count" style="text;html=1;align=center;verticalAlign=middle;resizable=0;points=[];autosize=1;strokeColor=none;fillColor=none;" parent="1" vertex="1">
          <mxGeometry x="1760" y="602" width="50" height="30" as="geometry" />
        </mxCell>
        <mxCell id="DsfY3s6e81VrVdrhE0-I-226" value="" style="endArrow=classic;html=1;rounded=0;entryX=0.5;entryY=0;entryDx=0;entryDy=0;" parent="1" target="DsfY3s6e81VrVdrhE0-I-211" edge="1">
          <mxGeometry width="50" height="50" relative="1" as="geometry">
            <mxPoint x="1755" y="668" as="sourcePoint" />
            <mxPoint x="1475" y="644" as="targetPoint" />
            <Array as="points">
              <mxPoint x="1755" y="614" />
              <mxPoint x="1465" y="614" />
            </Array>
          </mxGeometry>
        </mxCell>
        <mxCell id="DsfY3s6e81VrVdrhE0-I-227" style="edgeStyle=orthogonalEdgeStyle;rounded=0;orthogonalLoop=1;jettySize=auto;html=1;exitX=1;exitY=0.25;exitDx=0;exitDy=0;entryX=0.065;entryY=0.351;entryDx=0;entryDy=0;entryPerimeter=0;" parent="1" source="DsfY3s6e81VrVdrhE0-I-213" target="DsfY3s6e81VrVdrhE0-I-224" edge="1">
          <mxGeometry relative="1" as="geometry" />
        </mxCell>
        <mxCell id="DsfY3s6e81VrVdrhE0-I-228" value="count_done" style="text;html=1;align=center;verticalAlign=middle;resizable=0;points=[];autosize=1;strokeColor=none;fillColor=none;" parent="1" vertex="1">
          <mxGeometry x="1795" y="642" width="90" height="30" as="geometry" />
        </mxCell>
        <mxCell id="DsfY3s6e81VrVdrhE0-I-229" value="en_count" style="text;html=1;align=center;verticalAlign=middle;resizable=0;points=[];autosize=1;strokeColor=none;fillColor=none;" parent="1" vertex="1">
          <mxGeometry x="1552.5" y="794" width="70" height="30" as="geometry" />
        </mxCell>
        <mxCell id="DsfY3s6e81VrVdrhE0-I-230" value="" style="endArrow=none;html=1;rounded=0;" parent="1" edge="1">
          <mxGeometry width="50" height="50" relative="1" as="geometry">
            <mxPoint x="1485" y="674" as="sourcePoint" />
            <mxPoint x="1505" y="654" as="targetPoint" />
          </mxGeometry>
        </mxCell>
        <mxCell id="DsfY3s6e81VrVdrhE0-I-231" value="5" style="text;html=1;align=center;verticalAlign=middle;resizable=0;points=[];autosize=1;strokeColor=none;fillColor=none;" parent="1" vertex="1">
          <mxGeometry x="1490" y="632" width="30" height="30" as="geometry" />
        </mxCell>
        <mxCell id="DsfY3s6e81VrVdrhE0-I-232" value="" style="endArrow=none;html=1;rounded=0;" parent="1" edge="1">
          <mxGeometry width="50" height="50" relative="1" as="geometry">
            <mxPoint x="1575" y="684" as="sourcePoint" />
            <mxPoint x="1595" y="664" as="targetPoint" />
          </mxGeometry>
        </mxCell>
        <mxCell id="DsfY3s6e81VrVdrhE0-I-233" value="5" style="text;html=1;align=center;verticalAlign=middle;resizable=0;points=[];autosize=1;strokeColor=none;fillColor=none;" parent="1" vertex="1">
          <mxGeometry x="1580" y="642" width="30" height="30" as="geometry" />
        </mxCell>
        <mxCell id="DsfY3s6e81VrVdrhE0-I-234" value="" style="endArrow=none;html=1;rounded=0;" parent="1" edge="1">
          <mxGeometry width="50" height="50" relative="1" as="geometry">
            <mxPoint x="1725" y="674" as="sourcePoint" />
            <mxPoint x="1745" y="654" as="targetPoint" />
          </mxGeometry>
        </mxCell>
        <mxCell id="DsfY3s6e81VrVdrhE0-I-235" value="5" style="text;html=1;align=center;verticalAlign=middle;resizable=0;points=[];autosize=1;strokeColor=none;fillColor=none;" parent="1" vertex="1">
          <mxGeometry x="1730" y="632" width="30" height="30" as="geometry" />
        </mxCell>
        <mxCell id="DsfY3s6e81VrVdrhE0-I-236" value="" style="endArrow=none;html=1;rounded=0;" parent="1" edge="1">
          <mxGeometry width="50" height="50" relative="1" as="geometry">
            <mxPoint x="1475" y="704" as="sourcePoint" />
            <mxPoint x="1495" y="684" as="targetPoint" />
          </mxGeometry>
        </mxCell>
        <mxCell id="DsfY3s6e81VrVdrhE0-I-237" value="5" style="text;html=1;align=center;verticalAlign=middle;resizable=0;points=[];autosize=1;strokeColor=none;fillColor=none;" parent="1" vertex="1">
          <mxGeometry x="1480" y="662" width="30" height="30" as="geometry" />
        </mxCell>
        <mxCell id="DsfY3s6e81VrVdrhE0-I-238" value="0" style="text;html=1;align=center;verticalAlign=middle;resizable=0;points=[];autosize=1;strokeColor=none;fillColor=none;" parent="1" vertex="1">
          <mxGeometry x="1430" y="676" width="30" height="30" as="geometry" />
        </mxCell>
        <mxCell id="DsfY3s6e81VrVdrhE0-I-239" value="clear" style="text;html=1;align=center;verticalAlign=middle;resizable=0;points=[];autosize=1;strokeColor=none;fillColor=none;" parent="1" vertex="1">
          <mxGeometry x="1510" y="744" width="50" height="30" as="geometry" />
        </mxCell>
        <mxCell id="DsfY3s6e81VrVdrhE0-I-240" value="en_M" style="text;html=1;align=center;verticalAlign=middle;resizable=0;points=[];autosize=1;strokeColor=none;fillColor=none;" parent="1" vertex="1">
          <mxGeometry x="1110" y="542" width="50" height="30" as="geometry" />
        </mxCell>
        <mxCell id="DsfY3s6e81VrVdrhE0-I-241" value="en_A" style="text;html=1;align=center;verticalAlign=middle;resizable=0;points=[];autosize=1;strokeColor=none;fillColor=none;" parent="1" vertex="1">
          <mxGeometry x="1126.25" y="717" width="50" height="30" as="geometry" />
        </mxCell>
        <mxCell id="DsfY3s6e81VrVdrhE0-I-243" style="edgeStyle=orthogonalEdgeStyle;rounded=0;orthogonalLoop=1;jettySize=auto;html=1;exitX=1;exitY=0.5;exitDx=0;exitDy=-5;exitPerimeter=0;entryX=0;entryY=0.25;entryDx=0;entryDy=0;" parent="1" source="DsfY3s6e81VrVdrhE0-I-242" target="DsfY3s6e81VrVdrhE0-I-165" edge="1">
          <mxGeometry relative="1" as="geometry" />
        </mxCell>
        <mxCell id="g3JWG0wVSetdQ4iCRvYI-6" style="edgeStyle=orthogonalEdgeStyle;rounded=0;orthogonalLoop=1;jettySize=auto;html=1;exitX=0.2777777777777778;exitY=1;exitDx=10;exitDy=0;exitPerimeter=0;entryX=0.2777777777777778;entryY=1;entryDx=10;entryDy=0;entryPerimeter=0;" parent="1" target="DsfY3s6e81VrVdrhE0-I-242" edge="1">
          <mxGeometry relative="1" as="geometry">
            <mxPoint x="1129.7894736842106" y="700" as="sourcePoint" />
          </mxGeometry>
        </mxCell>
        <mxCell id="pyoUP8Q9Z5OEXJ31vPSe-53" style="edgeStyle=orthogonalEdgeStyle;rounded=0;orthogonalLoop=1;jettySize=auto;html=1;exitX=0;exitY=0.19029850746268656;exitDx=0;exitDy=3;exitPerimeter=0;entryX=0;entryY=0.19029850746268656;entryDx=0;entryDy=3;entryPerimeter=0;" edge="1" parent="1" target="DsfY3s6e81VrVdrhE0-I-242">
          <mxGeometry relative="1" as="geometry">
            <mxPoint x="1050" y="617.7735849056605" as="sourcePoint" />
          </mxGeometry>
        </mxCell>
        <mxCell id="DsfY3s6e81VrVdrhE0-I-242" value="Mux" style="shadow=0;dashed=0;align=center;html=1;strokeWidth=1;shape=mxgraph.electrical.abstract.mux2;whiteSpace=wrap;" parent="1" vertex="1">
          <mxGeometry x="1107.5" y="602" width="45" height="67" as="geometry" />
        </mxCell>
        <mxCell id="DsfY3s6e81VrVdrhE0-I-245" value="0" style="text;html=1;align=center;verticalAlign=middle;resizable=0;points=[];autosize=1;strokeColor=none;fillColor=none;" parent="1" vertex="1">
          <mxGeometry x="1030" y="602" width="30" height="30" as="geometry" />
        </mxCell>
        <mxCell id="DsfY3s6e81VrVdrhE0-I-246" value="" style="endArrow=none;html=1;rounded=0;" parent="1" edge="1">
          <mxGeometry width="50" height="50" relative="1" as="geometry">
            <mxPoint x="1055" y="627" as="sourcePoint" />
            <mxPoint x="1075" y="607" as="targetPoint" />
          </mxGeometry>
        </mxCell>
        <mxCell id="DsfY3s6e81VrVdrhE0-I-247" value="16" style="text;html=1;align=center;verticalAlign=middle;resizable=0;points=[];autosize=1;strokeColor=none;fillColor=none;" parent="1" vertex="1">
          <mxGeometry x="1045" y="590" width="40" height="30" as="geometry" />
        </mxCell>
        <mxCell id="DsfY3s6e81VrVdrhE0-I-250" value="Concatenate" style="whiteSpace=wrap;html=1;aspect=fixed;" parent="1" vertex="1">
          <mxGeometry x="1502.5" y="400" width="80" height="80" as="geometry" />
        </mxCell>
        <mxCell id="DsfY3s6e81VrVdrhE0-I-255" style="edgeStyle=orthogonalEdgeStyle;rounded=0;orthogonalLoop=1;jettySize=auto;html=1;exitX=1;exitY=0.5;exitDx=0;exitDy=0;entryX=0;entryY=0.5;entryDx=0;entryDy=0;" parent="1" source="DsfY3s6e81VrVdrhE0-I-251" target="DsfY3s6e81VrVdrhE0-I-256" edge="1">
          <mxGeometry relative="1" as="geometry">
            <mxPoint x="1740" y="428.2903225806451" as="targetPoint" />
          </mxGeometry>
        </mxCell>
        <mxCell id="DsfY3s6e81VrVdrhE0-I-275" style="edgeStyle=orthogonalEdgeStyle;rounded=0;orthogonalLoop=1;jettySize=auto;html=1;exitX=0.5;exitY=0;exitDx=0;exitDy=0;" parent="1" source="DsfY3s6e81VrVdrhE0-I-251" edge="1">
          <mxGeometry relative="1" as="geometry">
            <mxPoint x="2070" y="370" as="targetPoint" />
            <Array as="points">
              <mxPoint x="1672" y="370" />
            </Array>
          </mxGeometry>
        </mxCell>
        <mxCell id="DsfY3s6e81VrVdrhE0-I-251" value="&amp;lt;&amp;lt;1" style="ellipse;whiteSpace=wrap;html=1;aspect=fixed;" parent="1" vertex="1">
          <mxGeometry x="1650" y="406.5" width="43" height="43" as="geometry" />
        </mxCell>
        <mxCell id="DsfY3s6e81VrVdrhE0-I-252" style="edgeStyle=orthogonalEdgeStyle;rounded=0;orthogonalLoop=1;jettySize=auto;html=1;exitX=1;exitY=0.25;exitDx=0;exitDy=0;entryX=-0.039;entryY=0.317;entryDx=0;entryDy=0;entryPerimeter=0;" parent="1" source="DsfY3s6e81VrVdrhE0-I-250" target="DsfY3s6e81VrVdrhE0-I-251" edge="1">
          <mxGeometry relative="1" as="geometry" />
        </mxCell>
        <mxCell id="DsfY3s6e81VrVdrhE0-I-253" value="" style="endArrow=none;html=1;rounded=0;" parent="1" edge="1">
          <mxGeometry width="50" height="50" relative="1" as="geometry">
            <mxPoint x="1597.5" y="432" as="sourcePoint" />
            <mxPoint x="1617.5" y="412" as="targetPoint" />
          </mxGeometry>
        </mxCell>
        <mxCell id="DsfY3s6e81VrVdrhE0-I-254" value="32" style="text;html=1;align=center;verticalAlign=middle;resizable=0;points=[];autosize=1;strokeColor=none;fillColor=none;" parent="1" vertex="1">
          <mxGeometry x="1597.5" y="390" width="40" height="30" as="geometry" />
        </mxCell>
        <mxCell id="DsfY3s6e81VrVdrhE0-I-277" style="edgeStyle=orthogonalEdgeStyle;rounded=0;orthogonalLoop=1;jettySize=auto;html=1;exitX=1;exitY=0.5;exitDx=0;exitDy=0;" parent="1" source="DsfY3s6e81VrVdrhE0-I-256" edge="1">
          <mxGeometry relative="1" as="geometry">
            <mxPoint x="2073.1372549019607" y="420" as="targetPoint" />
            <Array as="points">
              <mxPoint x="2010" y="428" />
              <mxPoint x="2010" y="420" />
            </Array>
          </mxGeometry>
        </mxCell>
        <mxCell id="DsfY3s6e81VrVdrhE0-I-256" value="-" style="ellipse;whiteSpace=wrap;html=1;aspect=fixed;" parent="1" vertex="1">
          <mxGeometry x="1765" y="406.5" width="43" height="43" as="geometry" />
        </mxCell>
        <mxCell id="DsfY3s6e81VrVdrhE0-I-257" value="[31:16]" style="text;html=1;align=center;verticalAlign=middle;resizable=0;points=[];autosize=1;strokeColor=none;fillColor=none;" parent="1" vertex="1">
          <mxGeometry x="1690" y="398" width="60" height="30" as="geometry" />
        </mxCell>
        <mxCell id="DsfY3s6e81VrVdrhE0-I-261" value="A - M" style="text;html=1;align=center;verticalAlign=middle;resizable=0;points=[];autosize=1;strokeColor=none;fillColor=none;" parent="1" vertex="1">
          <mxGeometry x="1815" y="408" width="50" height="30" as="geometry" />
        </mxCell>
        <mxCell id="DsfY3s6e81VrVdrhE0-I-265" value="" style="endArrow=none;html=1;rounded=0;" parent="1" edge="1">
          <mxGeometry width="50" height="50" relative="1" as="geometry">
            <mxPoint x="2070" y="392" as="sourcePoint" />
            <mxPoint x="2070" y="352" as="targetPoint" />
          </mxGeometry>
        </mxCell>
        <mxCell id="DsfY3s6e81VrVdrhE0-I-266" value="" style="endArrow=none;html=1;rounded=0;" parent="1" edge="1">
          <mxGeometry width="50" height="50" relative="1" as="geometry">
            <mxPoint x="2070" y="452" as="sourcePoint" />
            <mxPoint x="2070" y="412" as="targetPoint" />
          </mxGeometry>
        </mxCell>
        <mxCell id="DsfY3s6e81VrVdrhE0-I-267" value="" style="endArrow=none;html=1;rounded=0;" parent="1" edge="1">
          <mxGeometry width="50" height="50" relative="1" as="geometry">
            <mxPoint x="2120" y="442" as="sourcePoint" />
            <mxPoint x="2120" y="362" as="targetPoint" />
          </mxGeometry>
        </mxCell>
        <mxCell id="DsfY3s6e81VrVdrhE0-I-268" value="" style="endArrow=none;html=1;rounded=0;" parent="1" edge="1">
          <mxGeometry width="50" height="50" relative="1" as="geometry">
            <mxPoint x="2120" y="442" as="sourcePoint" />
            <mxPoint x="2070" y="452" as="targetPoint" />
          </mxGeometry>
        </mxCell>
        <mxCell id="DsfY3s6e81VrVdrhE0-I-269" value="" style="endArrow=none;html=1;rounded=0;" parent="1" edge="1">
          <mxGeometry width="50" height="50" relative="1" as="geometry">
            <mxPoint x="2120" y="362" as="sourcePoint" />
            <mxPoint x="2070" y="352" as="targetPoint" />
          </mxGeometry>
        </mxCell>
        <mxCell id="DsfY3s6e81VrVdrhE0-I-270" value="" style="endArrow=none;html=1;rounded=0;" parent="1" edge="1">
          <mxGeometry width="50" height="50" relative="1" as="geometry">
            <mxPoint x="2070" y="412" as="sourcePoint" />
            <mxPoint x="2090" y="402" as="targetPoint" />
          </mxGeometry>
        </mxCell>
        <mxCell id="DsfY3s6e81VrVdrhE0-I-271" value="" style="endArrow=none;html=1;rounded=0;" parent="1" edge="1">
          <mxGeometry width="50" height="50" relative="1" as="geometry">
            <mxPoint x="2070" y="392" as="sourcePoint" />
            <mxPoint x="2090" y="402" as="targetPoint" />
          </mxGeometry>
        </mxCell>
        <mxCell id="DsfY3s6e81VrVdrhE0-I-272" value="ALU" style="text;html=1;align=center;verticalAlign=middle;resizable=0;points=[];autosize=1;strokeColor=none;fillColor=none;" parent="1" vertex="1">
          <mxGeometry x="2075" y="380" width="50" height="30" as="geometry" />
        </mxCell>
        <mxCell id="DsfY3s6e81VrVdrhE0-I-273" value="" style="endArrow=classic;html=1;rounded=0;" parent="1" edge="1">
          <mxGeometry width="50" height="50" relative="1" as="geometry">
            <mxPoint x="2090" y="492" as="sourcePoint" />
            <mxPoint x="2090" y="452" as="targetPoint" />
          </mxGeometry>
        </mxCell>
        <mxCell id="DsfY3s6e81VrVdrhE0-I-274" value="alu_op" style="text;html=1;align=center;verticalAlign=middle;resizable=0;points=[];autosize=1;strokeColor=none;fillColor=none;" parent="1" vertex="1">
          <mxGeometry x="2060" y="482" width="60" height="30" as="geometry" />
        </mxCell>
        <mxCell id="DsfY3s6e81VrVdrhE0-I-276" value="[15:0]" style="text;html=1;align=center;verticalAlign=middle;resizable=0;points=[];autosize=1;strokeColor=none;fillColor=none;" parent="1" vertex="1">
          <mxGeometry x="1730" y="346.5" width="50" height="30" as="geometry" />
        </mxCell>
        <mxCell id="DsfY3s6e81VrVdrhE0-I-280" style="edgeStyle=orthogonalEdgeStyle;rounded=0;orthogonalLoop=1;jettySize=auto;html=1;exitX=0.89;exitY=-0.09;exitDx=0;exitDy=0;exitPerimeter=0;entryX=0;entryY=0.5708955223880596;entryDx=0;entryDy=3;entryPerimeter=0;" parent="1" target="DsfY3s6e81VrVdrhE0-I-242" edge="1">
          <mxGeometry relative="1" as="geometry">
            <mxPoint x="1080" y="631.6666666666667" as="targetPoint" />
            <mxPoint x="2120" y="427" as="sourcePoint" />
            <Array as="points">
              <mxPoint x="2180" y="427" />
              <mxPoint x="2180" y="590" />
              <mxPoint x="1080" y="590" />
              <mxPoint x="1080" y="643" />
            </Array>
          </mxGeometry>
        </mxCell>
        <mxCell id="DsfY3s6e81VrVdrhE0-I-282" style="edgeStyle=orthogonalEdgeStyle;rounded=0;orthogonalLoop=1;jettySize=auto;html=1;entryX=0;entryY=0.6456521739130435;entryDx=0;entryDy=3;entryPerimeter=0;" parent="1" edge="1">
          <mxGeometry relative="1" as="geometry">
            <mxPoint x="2180" y="430" as="sourcePoint" />
            <mxPoint x="2315" y="410.2499999999999" as="targetPoint" />
            <Array as="points">
              <mxPoint x="2248" y="430" />
              <mxPoint x="2248" y="410" />
            </Array>
          </mxGeometry>
        </mxCell>
        <mxCell id="DsfY3s6e81VrVdrhE0-I-288" style="edgeStyle=orthogonalEdgeStyle;rounded=0;orthogonalLoop=1;jettySize=auto;html=1;entryX=0;entryY=0.21521739130434783;entryDx=0;entryDy=3;entryPerimeter=0;" parent="1" edge="1">
          <mxGeometry relative="1" as="geometry">
            <mxPoint x="2180" y="370" as="sourcePoint" />
            <mxPoint x="2315" y="380.75" as="targetPoint" />
            <Array as="points">
              <mxPoint x="2180" y="381" />
            </Array>
          </mxGeometry>
        </mxCell>
        <mxCell id="DsfY3s6e81VrVdrhE0-I-289" value="" style="endArrow=none;html=1;rounded=0;" parent="1" edge="1">
          <mxGeometry width="50" height="50" relative="1" as="geometry">
            <mxPoint x="2280" y="391" as="sourcePoint" />
            <mxPoint x="2300" y="371" as="targetPoint" />
          </mxGeometry>
        </mxCell>
        <mxCell id="DsfY3s6e81VrVdrhE0-I-290" value="16" style="text;html=1;align=center;verticalAlign=middle;resizable=0;points=[];autosize=1;strokeColor=none;fillColor=none;" parent="1" vertex="1">
          <mxGeometry x="2275" y="351" width="40" height="30" as="geometry" />
        </mxCell>
        <mxCell id="DsfY3s6e81VrVdrhE0-I-291" value="" style="endArrow=none;html=1;rounded=0;" parent="1" edge="1">
          <mxGeometry width="50" height="50" relative="1" as="geometry">
            <mxPoint x="2270" y="422" as="sourcePoint" />
            <mxPoint x="2290" y="402" as="targetPoint" />
          </mxGeometry>
        </mxCell>
        <mxCell id="DsfY3s6e81VrVdrhE0-I-292" value="16" style="text;html=1;align=center;verticalAlign=middle;resizable=0;points=[];autosize=1;strokeColor=none;fillColor=none;" parent="1" vertex="1">
          <mxGeometry x="2270" y="381" width="40" height="30" as="geometry" />
        </mxCell>
        <mxCell id="DsfY3s6e81VrVdrhE0-I-293" value="en_out" style="text;html=1;align=center;verticalAlign=middle;resizable=0;points=[];autosize=1;strokeColor=none;fillColor=none;" parent="1" vertex="1">
          <mxGeometry x="2265" y="450" width="60" height="30" as="geometry" />
        </mxCell>
        <mxCell id="DsfY3s6e81VrVdrhE0-I-294" value="Q_out" style="text;html=1;align=center;verticalAlign=middle;resizable=0;points=[];autosize=1;strokeColor=none;fillColor=none;" parent="1" vertex="1">
          <mxGeometry x="2170" y="357.5" width="60" height="30" as="geometry" />
        </mxCell>
        <mxCell id="DsfY3s6e81VrVdrhE0-I-300" style="edgeStyle=orthogonalEdgeStyle;rounded=0;orthogonalLoop=1;jettySize=auto;html=1;entryX=0;entryY=0.75;entryDx=0;entryDy=0;" parent="1" target="DsfY3s6e81VrVdrhE0-I-298" edge="1">
          <mxGeometry relative="1" as="geometry">
            <mxPoint x="2295" y="460" as="sourcePoint" />
            <Array as="points">
              <mxPoint x="2295" y="423" />
            </Array>
          </mxGeometry>
        </mxCell>
        <mxCell id="DsfY3s6e81VrVdrhE0-I-301" style="edgeStyle=orthogonalEdgeStyle;rounded=0;orthogonalLoop=1;jettySize=auto;html=1;exitX=1;exitY=0.25;exitDx=0;exitDy=0;" parent="1" source="DsfY3s6e81VrVdrhE0-I-298" edge="1">
          <mxGeometry relative="1" as="geometry">
            <mxPoint x="2450" y="387.1538461538462" as="targetPoint" />
          </mxGeometry>
        </mxCell>
        <mxCell id="DsfY3s6e81VrVdrhE0-I-302" style="edgeStyle=orthogonalEdgeStyle;rounded=0;orthogonalLoop=1;jettySize=auto;html=1;exitX=1;exitY=0.75;exitDx=0;exitDy=0;" parent="1" source="DsfY3s6e81VrVdrhE0-I-298" edge="1">
          <mxGeometry relative="1" as="geometry">
            <mxPoint x="2450" y="422.53846153846155" as="targetPoint" />
          </mxGeometry>
        </mxCell>
        <mxCell id="DsfY3s6e81VrVdrhE0-I-298" value="" style="whiteSpace=wrap;html=1;aspect=fixed;" parent="1" vertex="1">
          <mxGeometry x="2315" y="370" width="70" height="70" as="geometry" />
        </mxCell>
        <mxCell id="DsfY3s6e81VrVdrhE0-I-299" value="A_out" style="text;html=1;align=center;verticalAlign=middle;resizable=0;points=[];autosize=1;strokeColor=none;fillColor=none;" parent="1" vertex="1">
          <mxGeometry x="2175" y="408" width="50" height="30" as="geometry" />
        </mxCell>
        <mxCell id="DsfY3s6e81VrVdrhE0-I-303" value="" style="endArrow=none;html=1;rounded=0;" parent="1" edge="1">
          <mxGeometry width="50" height="50" relative="1" as="geometry">
            <mxPoint x="2400" y="401" as="sourcePoint" />
            <mxPoint x="2420" y="381" as="targetPoint" />
          </mxGeometry>
        </mxCell>
        <mxCell id="DsfY3s6e81VrVdrhE0-I-304" value="16" style="text;html=1;align=center;verticalAlign=middle;resizable=0;points=[];autosize=1;strokeColor=none;fillColor=none;" parent="1" vertex="1">
          <mxGeometry x="2395" y="361" width="40" height="30" as="geometry" />
        </mxCell>
        <mxCell id="DsfY3s6e81VrVdrhE0-I-305" value="" style="endArrow=none;html=1;rounded=0;" parent="1" edge="1">
          <mxGeometry width="50" height="50" relative="1" as="geometry">
            <mxPoint x="2400" y="431" as="sourcePoint" />
            <mxPoint x="2420" y="411" as="targetPoint" />
          </mxGeometry>
        </mxCell>
        <mxCell id="DsfY3s6e81VrVdrhE0-I-306" value="16" style="text;html=1;align=center;verticalAlign=middle;resizable=0;points=[];autosize=1;strokeColor=none;fillColor=none;" parent="1" vertex="1">
          <mxGeometry x="2395" y="391" width="40" height="30" as="geometry" />
        </mxCell>
        <mxCell id="DsfY3s6e81VrVdrhE0-I-307" value="" style="endArrow=none;dashed=1;html=1;rounded=0;" parent="1" edge="1">
          <mxGeometry width="50" height="50" relative="1" as="geometry">
            <mxPoint x="1040" y="170" as="sourcePoint" />
            <mxPoint x="2430" y="170" as="targetPoint" />
          </mxGeometry>
        </mxCell>
        <mxCell id="DsfY3s6e81VrVdrhE0-I-308" value="" style="endArrow=none;dashed=1;html=1;rounded=0;" parent="1" edge="1">
          <mxGeometry width="50" height="50" relative="1" as="geometry">
            <mxPoint x="1035" y="850" as="sourcePoint" />
            <mxPoint x="1035" y="170" as="targetPoint" />
          </mxGeometry>
        </mxCell>
        <mxCell id="DsfY3s6e81VrVdrhE0-I-309" value="" style="endArrow=none;html=1;rounded=0;" parent="1" edge="1">
          <mxGeometry width="50" height="50" relative="1" as="geometry">
            <mxPoint x="2140" y="391" as="sourcePoint" />
            <mxPoint x="2160" y="371" as="targetPoint" />
          </mxGeometry>
        </mxCell>
        <mxCell id="DsfY3s6e81VrVdrhE0-I-310" value="16" style="text;html=1;align=center;verticalAlign=middle;resizable=0;points=[];autosize=1;strokeColor=none;fillColor=none;" parent="1" vertex="1">
          <mxGeometry x="2135" y="351" width="40" height="30" as="geometry" />
        </mxCell>
        <mxCell id="DsfY3s6e81VrVdrhE0-I-311" value="" style="endArrow=none;html=1;rounded=0;" parent="1" edge="1">
          <mxGeometry width="50" height="50" relative="1" as="geometry">
            <mxPoint x="2130" y="441" as="sourcePoint" />
            <mxPoint x="2150" y="421" as="targetPoint" />
          </mxGeometry>
        </mxCell>
        <mxCell id="DsfY3s6e81VrVdrhE0-I-312" value="16" style="text;html=1;align=center;verticalAlign=middle;resizable=0;points=[];autosize=1;strokeColor=none;fillColor=none;" parent="1" vertex="1">
          <mxGeometry x="2125" y="401" width="40" height="30" as="geometry" />
        </mxCell>
        <mxCell id="DsfY3s6e81VrVdrhE0-I-313" value="" style="endArrow=none;dashed=1;html=1;rounded=0;" parent="1" edge="1">
          <mxGeometry width="50" height="50" relative="1" as="geometry">
            <mxPoint x="2430" y="845" as="sourcePoint" />
            <mxPoint x="2430" y="170" as="targetPoint" />
          </mxGeometry>
        </mxCell>
        <mxCell id="DsfY3s6e81VrVdrhE0-I-314" value="" style="endArrow=none;dashed=1;html=1;rounded=0;" parent="1" edge="1">
          <mxGeometry width="50" height="50" relative="1" as="geometry">
            <mxPoint x="1035" y="850" as="sourcePoint" />
            <mxPoint x="2430" y="850" as="targetPoint" />
          </mxGeometry>
        </mxCell>
        <mxCell id="DsfY3s6e81VrVdrhE0-I-319" style="edgeStyle=orthogonalEdgeStyle;rounded=0;orthogonalLoop=1;jettySize=auto;html=1;exitX=0;exitY=0.25;exitDx=0;exitDy=0;entryX=0;entryY=0.25;entryDx=0;entryDy=0;" parent="1" target="DsfY3s6e81VrVdrhE0-I-315" edge="1">
          <mxGeometry relative="1" as="geometry">
            <mxPoint x="1340" y="921.969696969697" as="sourcePoint" />
          </mxGeometry>
        </mxCell>
        <mxCell id="DsfY3s6e81VrVdrhE0-I-322" style="edgeStyle=orthogonalEdgeStyle;rounded=0;orthogonalLoop=1;jettySize=auto;html=1;exitX=0.25;exitY=0;exitDx=0;exitDy=0;" parent="1" source="DsfY3s6e81VrVdrhE0-I-315" edge="1">
          <mxGeometry relative="1" as="geometry">
            <mxPoint x="1607.333333333333" y="870" as="targetPoint" />
          </mxGeometry>
        </mxCell>
        <mxCell id="DsfY3s6e81VrVdrhE0-I-315" value="Controller" style="rounded=0;whiteSpace=wrap;html=1;" parent="1" vertex="1">
          <mxGeometry x="1410" y="907" width="790" height="60" as="geometry" />
        </mxCell>
        <mxCell id="DsfY3s6e81VrVdrhE0-I-318" value="src_valid" style="text;html=1;align=center;verticalAlign=middle;resizable=0;points=[];autosize=1;strokeColor=none;fillColor=none;" parent="1" vertex="1">
          <mxGeometry x="1280" y="907" width="70" height="30" as="geometry" />
        </mxCell>
        <mxCell id="DsfY3s6e81VrVdrhE0-I-320" value="" style="endArrow=classic;html=1;rounded=0;entryX=1;entryY=0.75;entryDx=0;entryDy=0;" parent="1" target="DsfY3s6e81VrVdrhE0-I-315" edge="1">
          <mxGeometry width="50" height="50" relative="1" as="geometry">
            <mxPoint x="1910" y="430" as="sourcePoint" />
            <mxPoint x="2290" y="961.1111450195312" as="targetPoint" />
            <Array as="points">
              <mxPoint x="1910" y="650" />
              <mxPoint x="2290" y="650" />
              <mxPoint x="2290" y="952" />
            </Array>
          </mxGeometry>
        </mxCell>
        <mxCell id="DsfY3s6e81VrVdrhE0-I-321" value="A - M[15]" style="text;html=1;align=center;verticalAlign=middle;resizable=0;points=[];autosize=1;strokeColor=none;fillColor=none;" parent="1" vertex="1">
          <mxGeometry x="1940" y="624" width="70" height="30" as="geometry" />
        </mxCell>
        <mxCell id="DsfY3s6e81VrVdrhE0-I-323" style="edgeStyle=orthogonalEdgeStyle;rounded=0;orthogonalLoop=1;jettySize=auto;html=1;exitX=0.25;exitY=0;exitDx=0;exitDy=0;" parent="1" edge="1">
          <mxGeometry relative="1" as="geometry">
            <mxPoint x="1467.333333333333" y="870" as="targetPoint" />
            <mxPoint x="1468" y="907" as="sourcePoint" />
          </mxGeometry>
        </mxCell>
        <mxCell id="DsfY3s6e81VrVdrhE0-I-324" style="edgeStyle=orthogonalEdgeStyle;rounded=0;orthogonalLoop=1;jettySize=auto;html=1;exitX=0.25;exitY=0;exitDx=0;exitDy=0;" parent="1" edge="1">
          <mxGeometry relative="1" as="geometry">
            <mxPoint x="1517.333333333333" y="870" as="targetPoint" />
            <mxPoint x="1518" y="907" as="sourcePoint" />
          </mxGeometry>
        </mxCell>
        <mxCell id="DsfY3s6e81VrVdrhE0-I-325" style="edgeStyle=orthogonalEdgeStyle;rounded=0;orthogonalLoop=1;jettySize=auto;html=1;exitX=0.25;exitY=0;exitDx=0;exitDy=0;" parent="1" edge="1">
          <mxGeometry relative="1" as="geometry">
            <mxPoint x="1567.333333333333" y="870" as="targetPoint" />
            <mxPoint x="1568" y="907" as="sourcePoint" />
          </mxGeometry>
        </mxCell>
        <mxCell id="DsfY3s6e81VrVdrhE0-I-326" value="en_count" style="text;html=1;align=center;verticalAlign=middle;resizable=0;points=[];autosize=1;strokeColor=none;fillColor=none;" parent="1" vertex="1">
          <mxGeometry x="1582.5" y="844" width="70" height="30" as="geometry" />
        </mxCell>
        <mxCell id="DsfY3s6e81VrVdrhE0-I-328" value="clear" style="text;html=1;align=center;verticalAlign=middle;resizable=0;points=[];autosize=1;strokeColor=none;fillColor=none;" parent="1" vertex="1">
          <mxGeometry x="1540" y="844" width="50" height="30" as="geometry" />
        </mxCell>
        <mxCell id="DsfY3s6e81VrVdrhE0-I-329" value="en_A" style="text;html=1;align=center;verticalAlign=middle;resizable=0;points=[];autosize=1;strokeColor=none;fillColor=none;" parent="1" vertex="1">
          <mxGeometry x="1485" y="844" width="50" height="30" as="geometry" />
        </mxCell>
        <mxCell id="DsfY3s6e81VrVdrhE0-I-330" value="en_M" style="text;html=1;align=center;verticalAlign=middle;resizable=0;points=[];autosize=1;strokeColor=none;fillColor=none;" parent="1" vertex="1">
          <mxGeometry x="1435" y="844" width="50" height="30" as="geometry" />
        </mxCell>
        <mxCell id="DsfY3s6e81VrVdrhE0-I-331" value="en_Q" style="text;html=1;align=center;verticalAlign=middle;resizable=0;points=[];autosize=1;strokeColor=none;fillColor=none;" parent="1" vertex="1">
          <mxGeometry x="1385" y="844" width="50" height="30" as="geometry" />
        </mxCell>
        <mxCell id="DsfY3s6e81VrVdrhE0-I-332" style="edgeStyle=orthogonalEdgeStyle;rounded=0;orthogonalLoop=1;jettySize=auto;html=1;exitX=0.25;exitY=0;exitDx=0;exitDy=0;" parent="1" edge="1">
          <mxGeometry relative="1" as="geometry">
            <mxPoint x="1417.333333333333" y="870" as="targetPoint" />
            <mxPoint x="1418" y="907" as="sourcePoint" />
          </mxGeometry>
        </mxCell>
        <mxCell id="DsfY3s6e81VrVdrhE0-I-333" style="edgeStyle=orthogonalEdgeStyle;rounded=0;orthogonalLoop=1;jettySize=auto;html=1;exitX=0.25;exitY=0;exitDx=0;exitDy=0;" parent="1" edge="1">
          <mxGeometry relative="1" as="geometry">
            <mxPoint x="1857.333333333333" y="870" as="targetPoint" />
            <mxPoint x="1858" y="907" as="sourcePoint" />
          </mxGeometry>
        </mxCell>
        <mxCell id="DsfY3s6e81VrVdrhE0-I-334" style="edgeStyle=orthogonalEdgeStyle;rounded=0;orthogonalLoop=1;jettySize=auto;html=1;exitX=0.25;exitY=0;exitDx=0;exitDy=0;" parent="1" edge="1">
          <mxGeometry relative="1" as="geometry">
            <mxPoint x="2060.043333333333" y="870" as="targetPoint" />
            <mxPoint x="2060.71" y="907" as="sourcePoint" />
          </mxGeometry>
        </mxCell>
        <mxCell id="DsfY3s6e81VrVdrhE0-I-335" style="edgeStyle=orthogonalEdgeStyle;rounded=0;orthogonalLoop=1;jettySize=auto;html=1;exitX=0.25;exitY=0;exitDx=0;exitDy=0;" parent="1" edge="1">
          <mxGeometry relative="1" as="geometry">
            <mxPoint x="1977.333333333333" y="870" as="targetPoint" />
            <mxPoint x="1978" y="907" as="sourcePoint" />
          </mxGeometry>
        </mxCell>
        <mxCell id="DsfY3s6e81VrVdrhE0-I-336" value="alu_op" style="text;html=1;align=center;verticalAlign=middle;resizable=0;points=[];autosize=1;strokeColor=none;fillColor=none;" parent="1" vertex="1">
          <mxGeometry x="1835" y="844" width="60" height="30" as="geometry" />
        </mxCell>
        <mxCell id="DsfY3s6e81VrVdrhE0-I-337" value="en_out" style="text;html=1;align=center;verticalAlign=middle;resizable=0;points=[];autosize=1;strokeColor=none;fillColor=none;" parent="1" vertex="1">
          <mxGeometry x="1950" y="844" width="60" height="30" as="geometry" />
        </mxCell>
        <mxCell id="DsfY3s6e81VrVdrhE0-I-338" value="&lt;b&gt;&lt;font style=&quot;font-size: 20px;&quot;&gt;DATAPATH&lt;/font&gt;&lt;/b&gt;" style="text;html=1;align=center;verticalAlign=middle;resizable=0;points=[];autosize=1;strokeColor=none;fillColor=none;" parent="1" vertex="1">
          <mxGeometry x="1630" y="90" width="130" height="40" as="geometry" />
        </mxCell>
        <mxCell id="DsfY3s6e81VrVdrhE0-I-339" style="edgeStyle=orthogonalEdgeStyle;rounded=0;orthogonalLoop=1;jettySize=auto;html=1;exitX=0.5;exitY=0;exitDx=0;exitDy=0;curved=1;entryX=0.996;entryY=0.331;entryDx=0;entryDy=0;entryPerimeter=0;" parent="1" source="DsfY3s6e81VrVdrhE0-I-341" target="DsfY3s6e81VrVdrhE0-I-341" edge="1">
          <mxGeometry relative="1" as="geometry">
            <mxPoint x="1779" y="1300" as="targetPoint" />
          </mxGeometry>
        </mxCell>
        <mxCell id="DsfY3s6e81VrVdrhE0-I-340" style="edgeStyle=orthogonalEdgeStyle;rounded=0;orthogonalLoop=1;jettySize=auto;html=1;exitX=1;exitY=0.5;exitDx=0;exitDy=0;entryX=0.5;entryY=0;entryDx=0;entryDy=0;curved=1;" parent="1" edge="1">
          <mxGeometry relative="1" as="geometry">
            <mxPoint x="1609" y="1343" as="sourcePoint" />
            <mxPoint x="1809" y="1483" as="targetPoint" />
          </mxGeometry>
        </mxCell>
        <mxCell id="DsfY3s6e81VrVdrhE0-I-341" value="IDLE" style="ellipse;whiteSpace=wrap;html=1;aspect=fixed;" parent="1" vertex="1">
          <mxGeometry x="1529" y="1300" width="80" height="80" as="geometry" />
        </mxCell>
        <mxCell id="DsfY3s6e81VrVdrhE0-I-342" style="edgeStyle=orthogonalEdgeStyle;rounded=0;orthogonalLoop=1;jettySize=auto;html=1;exitX=0;exitY=0.5;exitDx=0;exitDy=0;curved=1;" parent="1" source="DsfY3s6e81VrVdrhE0-I-343" target="DsfY3s6e81VrVdrhE0-I-341" edge="1">
          <mxGeometry relative="1" as="geometry" />
        </mxCell>
        <mxCell id="DsfY3s6e81VrVdrhE0-I-343" value="RUN" style="ellipse;whiteSpace=wrap;html=1;aspect=fixed;" parent="1" vertex="1">
          <mxGeometry x="1769" y="1480" width="80" height="80" as="geometry" />
        </mxCell>
        <mxCell id="DsfY3s6e81VrVdrhE0-I-344" value="!src_valid / src_ready" style="text;html=1;align=center;verticalAlign=middle;resizable=0;points=[];autosize=1;strokeColor=none;fillColor=none;" parent="1" vertex="1">
          <mxGeometry x="1589" y="1250" width="140" height="30" as="geometry" />
        </mxCell>
        <mxCell id="DsfY3s6e81VrVdrhE0-I-345" value="sub_msb &amp;amp;&amp;amp; !count_done / en_count, en_Q, en_M, en_A, sel_Q, sel_A" style="text;html=1;align=center;verticalAlign=middle;resizable=0;points=[];autosize=1;strokeColor=none;fillColor=none;" parent="1" vertex="1">
          <mxGeometry x="1910" y="1480" width="400" height="30" as="geometry" />
        </mxCell>
        <mxCell id="DsfY3s6e81VrVdrhE0-I-349" value="count_done &amp;amp; !dest_ready/ dest_valid, en_out, clear" style="text;html=1;align=center;verticalAlign=middle;resizable=0;points=[];autosize=1;strokeColor=none;fillColor=none;" parent="1" vertex="1">
          <mxGeometry x="1425" y="1610" width="300" height="30" as="geometry" />
        </mxCell>
        <mxCell id="DsfY3s6e81VrVdrhE0-I-350" style="edgeStyle=orthogonalEdgeStyle;rounded=0;orthogonalLoop=1;jettySize=auto;html=1;exitX=0;exitY=1;exitDx=0;exitDy=0;curved=1;" parent="1" source="DsfY3s6e81VrVdrhE0-I-352" target="DsfY3s6e81VrVdrhE0-I-352" edge="1">
          <mxGeometry relative="1" as="geometry">
            <mxPoint x="1259" y="1520" as="targetPoint" />
            <Array as="points">
              <mxPoint x="1317" y="1570" />
              <mxPoint x="1270" y="1570" />
              <mxPoint x="1270" y="1500" />
            </Array>
          </mxGeometry>
        </mxCell>
        <mxCell id="DsfY3s6e81VrVdrhE0-I-351" style="edgeStyle=orthogonalEdgeStyle;rounded=0;orthogonalLoop=1;jettySize=auto;html=1;exitX=0.5;exitY=0;exitDx=0;exitDy=0;entryX=0;entryY=0.5;entryDx=0;entryDy=0;curved=1;" parent="1" source="DsfY3s6e81VrVdrhE0-I-352" target="DsfY3s6e81VrVdrhE0-I-341" edge="1">
          <mxGeometry relative="1" as="geometry" />
        </mxCell>
        <mxCell id="DsfY3s6e81VrVdrhE0-I-352" value="WAIT" style="ellipse;whiteSpace=wrap;html=1;aspect=fixed;" parent="1" vertex="1">
          <mxGeometry x="1305" y="1500" width="80" height="80" as="geometry" />
        </mxCell>
        <mxCell id="DsfY3s6e81VrVdrhE0-I-353" value="src_valid / src_ready, en_Q, en_A, en_M, en_count" style="text;html=1;align=center;verticalAlign=middle;resizable=0;points=[];autosize=1;strokeColor=none;fillColor=none;rotation=0;" parent="1" vertex="1">
          <mxGeometry x="1664" y="1325" width="300" height="30" as="geometry" />
        </mxCell>
        <mxCell id="DsfY3s6e81VrVdrhE0-I-354" style="edgeStyle=orthogonalEdgeStyle;rounded=0;orthogonalLoop=1;jettySize=auto;html=1;exitX=1;exitY=0;exitDx=0;exitDy=0;entryX=0.973;entryY=0.806;entryDx=0;entryDy=0;entryPerimeter=0;curved=1;" parent="1" source="DsfY3s6e81VrVdrhE0-I-343" target="DsfY3s6e81VrVdrhE0-I-343" edge="1">
          <mxGeometry relative="1" as="geometry">
            <Array as="points">
              <mxPoint x="1837" y="1480" />
              <mxPoint x="1899" y="1480" />
              <mxPoint x="1899" y="1544" />
            </Array>
          </mxGeometry>
        </mxCell>
        <mxCell id="DsfY3s6e81VrVdrhE0-I-355" value="!dest_ready / dest_valid, clear" style="text;html=1;align=center;verticalAlign=middle;resizable=0;points=[];autosize=1;strokeColor=none;fillColor=none;" parent="1" vertex="1">
          <mxGeometry x="1160" y="1570" width="180" height="30" as="geometry" />
        </mxCell>
        <mxCell id="DsfY3s6e81VrVdrhE0-I-356" value="dest_ready / src_ready, dest_valid, en_final, clear" style="text;html=1;align=center;verticalAlign=middle;resizable=0;points=[];autosize=1;strokeColor=none;fillColor=none;" parent="1" vertex="1">
          <mxGeometry x="1174" y="1320" width="290" height="30" as="geometry" />
        </mxCell>
        <mxCell id="DsfY3s6e81VrVdrhE0-I-357" value="" style="curved=1;endArrow=classic;html=1;rounded=0;entryX=0.292;entryY=0.017;entryDx=0;entryDy=0;entryPerimeter=0;" parent="1" target="DsfY3s6e81VrVdrhE0-I-341" edge="1">
          <mxGeometry width="50" height="50" relative="1" as="geometry">
            <mxPoint x="1469" y="1260" as="sourcePoint" />
            <mxPoint x="1529" y="1260" as="targetPoint" />
            <Array as="points">
              <mxPoint x="1529" y="1310" />
              <mxPoint x="1519" y="1290" />
              <mxPoint x="1479" y="1260" />
            </Array>
          </mxGeometry>
        </mxCell>
        <mxCell id="DsfY3s6e81VrVdrhE0-I-358" value="count_done &amp;amp; dest_ready/ src_ready, dest_valid, en_out, en_final, clear" style="text;html=1;align=center;verticalAlign=middle;resizable=0;points=[];autosize=1;strokeColor=none;fillColor=none;" parent="1" vertex="1">
          <mxGeometry x="1390" y="1510" width="400" height="30" as="geometry" />
        </mxCell>
        <mxCell id="DsfY3s6e81VrVdrhE0-I-359" style="edgeStyle=orthogonalEdgeStyle;rounded=0;orthogonalLoop=1;jettySize=auto;html=1;exitX=0;exitY=1;exitDx=0;exitDy=0;entryX=0.944;entryY=0.799;entryDx=0;entryDy=0;entryPerimeter=0;curved=1;" parent="1" source="DsfY3s6e81VrVdrhE0-I-343" target="DsfY3s6e81VrVdrhE0-I-352" edge="1">
          <mxGeometry relative="1" as="geometry">
            <Array as="points">
              <mxPoint x="1781" y="1610" />
              <mxPoint x="1380" y="1610" />
              <mxPoint x="1380" y="1564" />
            </Array>
          </mxGeometry>
        </mxCell>
        <mxCell id="DsfY3s6e81VrVdrhE0-I-360" value="&lt;b&gt;&lt;font style=&quot;font-size: 20px;&quot;&gt;CONTROLLER&lt;/font&gt;&lt;/b&gt;" style="text;html=1;align=center;verticalAlign=middle;resizable=0;points=[];autosize=1;strokeColor=none;fillColor=none;" parent="1" vertex="1">
          <mxGeometry x="1529" y="1180" width="160" height="40" as="geometry" />
        </mxCell>
        <mxCell id="g3JWG0wVSetdQ4iCRvYI-1" value="dest_ready" style="text;html=1;align=center;verticalAlign=middle;resizable=0;points=[];autosize=1;strokeColor=none;fillColor=none;" parent="1" vertex="1">
          <mxGeometry x="1265" y="930" width="80" height="30" as="geometry" />
        </mxCell>
        <mxCell id="g3JWG0wVSetdQ4iCRvYI-2" style="edgeStyle=orthogonalEdgeStyle;rounded=0;orthogonalLoop=1;jettySize=auto;html=1;exitX=0;exitY=0.25;exitDx=0;exitDy=0;entryX=0;entryY=0.25;entryDx=0;entryDy=0;" parent="1" edge="1">
          <mxGeometry relative="1" as="geometry">
            <mxPoint x="1340" y="944.759696969697" as="sourcePoint" />
            <mxPoint x="1410" y="944.79" as="targetPoint" />
          </mxGeometry>
        </mxCell>
        <mxCell id="g3JWG0wVSetdQ4iCRvYI-3" value="src_ready" style="text;html=1;align=center;verticalAlign=middle;resizable=0;points=[];autosize=1;strokeColor=none;fillColor=none;" parent="1" vertex="1">
          <mxGeometry x="2020" y="844" width="80" height="30" as="geometry" />
        </mxCell>
        <mxCell id="g3JWG0wVSetdQ4iCRvYI-4" value="dest_valid" style="text;html=1;align=center;verticalAlign=middle;resizable=0;points=[];autosize=1;strokeColor=none;fillColor=none;" parent="1" vertex="1">
          <mxGeometry x="2090" y="844" width="80" height="30" as="geometry" />
        </mxCell>
        <mxCell id="g3JWG0wVSetdQ4iCRvYI-5" style="edgeStyle=orthogonalEdgeStyle;rounded=0;orthogonalLoop=1;jettySize=auto;html=1;exitX=0.25;exitY=0;exitDx=0;exitDy=0;" parent="1" edge="1">
          <mxGeometry relative="1" as="geometry">
            <mxPoint x="2130.043333333333" y="870" as="targetPoint" />
            <mxPoint x="2130.71" y="907" as="sourcePoint" />
          </mxGeometry>
        </mxCell>
        <mxCell id="g3JWG0wVSetdQ4iCRvYI-7" value="sel_A" style="text;html=1;align=center;verticalAlign=middle;resizable=0;points=[];autosize=1;strokeColor=none;fillColor=none;" parent="1" vertex="1">
          <mxGeometry x="1100" y="692" width="50" height="30" as="geometry" />
        </mxCell>
        <mxCell id="g3JWG0wVSetdQ4iCRvYI-8" value="sel_A" style="text;html=1;align=center;verticalAlign=middle;resizable=0;points=[];autosize=1;strokeColor=none;fillColor=none;" parent="1" vertex="1">
          <mxGeometry x="1740" y="844" width="50" height="30" as="geometry" />
        </mxCell>
        <mxCell id="g3JWG0wVSetdQ4iCRvYI-9" value="sel_Q" style="text;html=1;align=center;verticalAlign=middle;resizable=0;points=[];autosize=1;strokeColor=none;fillColor=none;" parent="1" vertex="1">
          <mxGeometry x="1780" y="844" width="50" height="30" as="geometry" />
        </mxCell>
        <mxCell id="g3JWG0wVSetdQ4iCRvYI-10" style="edgeStyle=orthogonalEdgeStyle;rounded=0;orthogonalLoop=1;jettySize=auto;html=1;exitX=0.25;exitY=0;exitDx=0;exitDy=0;" parent="1" edge="1">
          <mxGeometry relative="1" as="geometry">
            <mxPoint x="1807.333333333333" y="870" as="targetPoint" />
            <mxPoint x="1808" y="907" as="sourcePoint" />
          </mxGeometry>
        </mxCell>
        <mxCell id="g3JWG0wVSetdQ4iCRvYI-11" style="edgeStyle=orthogonalEdgeStyle;rounded=0;orthogonalLoop=1;jettySize=auto;html=1;exitX=0.25;exitY=0;exitDx=0;exitDy=0;" parent="1" edge="1">
          <mxGeometry relative="1" as="geometry">
            <mxPoint x="1767.333333333333" y="870" as="targetPoint" />
            <mxPoint x="1768" y="907" as="sourcePoint" />
          </mxGeometry>
        </mxCell>
        <mxCell id="pyoUP8Q9Z5OEXJ31vPSe-1" value="reset" style="text;html=1;align=center;verticalAlign=middle;resizable=0;points=[];autosize=1;strokeColor=none;fillColor=none;" vertex="1" parent="1">
          <mxGeometry x="1435" y="1238" width="50" height="30" as="geometry" />
        </mxCell>
        <mxCell id="pyoUP8Q9Z5OEXJ31vPSe-2" value="!sub_msb &amp;amp;&amp;amp; !count_done / alu_op, en_count, en_Q, en_M, en_A, sel_Q, sel_A" style="text;html=1;align=center;verticalAlign=middle;resizable=0;points=[];autosize=1;strokeColor=none;fillColor=none;" vertex="1" parent="1">
          <mxGeometry x="1895" y="1500" width="450" height="30" as="geometry" />
        </mxCell>
        <mxCell id="pyoUP8Q9Z5OEXJ31vPSe-8" value="&lt;b&gt;&lt;font style=&quot;font-size: 20px;&quot;&gt;HANDSHAKE PROCESS&lt;/font&gt;&lt;/b&gt;" style="text;html=1;align=center;verticalAlign=middle;resizable=0;points=[];autosize=1;strokeColor=none;fillColor=none;" vertex="1" parent="1">
          <mxGeometry x="1560" y="-1040" width="250" height="40" as="geometry" />
        </mxCell>
        <mxCell id="pyoUP8Q9Z5OEXJ31vPSe-9" style="edgeStyle=orthogonalEdgeStyle;rounded=0;orthogonalLoop=1;jettySize=auto;html=1;exitX=0;exitY=0.75;exitDx=0;exitDy=0;entryX=1;entryY=0.75;entryDx=0;entryDy=0;" edge="1" parent="1" source="pyoUP8Q9Z5OEXJ31vPSe-11" target="pyoUP8Q9Z5OEXJ31vPSe-13">
          <mxGeometry relative="1" as="geometry" />
        </mxCell>
        <mxCell id="pyoUP8Q9Z5OEXJ31vPSe-10" style="edgeStyle=orthogonalEdgeStyle;rounded=0;orthogonalLoop=1;jettySize=auto;html=1;exitX=1;exitY=0.25;exitDx=0;exitDy=0;entryX=0;entryY=0.25;entryDx=0;entryDy=0;" edge="1" parent="1" source="pyoUP8Q9Z5OEXJ31vPSe-11" target="pyoUP8Q9Z5OEXJ31vPSe-15">
          <mxGeometry relative="1" as="geometry" />
        </mxCell>
        <mxCell id="pyoUP8Q9Z5OEXJ31vPSe-11" value="&lt;span style=&quot;font-size: 16px;&quot;&gt;Divider(Destination)&lt;/span&gt;" style="whiteSpace=wrap;html=1;aspect=fixed;" vertex="1" parent="1">
          <mxGeometry x="1620" y="-920" width="185" height="185" as="geometry" />
        </mxCell>
        <mxCell id="pyoUP8Q9Z5OEXJ31vPSe-12" style="edgeStyle=orthogonalEdgeStyle;rounded=0;orthogonalLoop=1;jettySize=auto;html=1;exitX=1;exitY=0.25;exitDx=0;exitDy=0;entryX=0;entryY=0.25;entryDx=0;entryDy=0;" edge="1" parent="1" source="pyoUP8Q9Z5OEXJ31vPSe-13" target="pyoUP8Q9Z5OEXJ31vPSe-11">
          <mxGeometry relative="1" as="geometry" />
        </mxCell>
        <mxCell id="pyoUP8Q9Z5OEXJ31vPSe-13" value="&lt;span style=&quot;font-size: 16px;&quot;&gt;Source(Testbench)&lt;/span&gt;" style="whiteSpace=wrap;html=1;aspect=fixed;" vertex="1" parent="1">
          <mxGeometry x="1220" y="-920" width="185" height="185" as="geometry" />
        </mxCell>
        <mxCell id="pyoUP8Q9Z5OEXJ31vPSe-14" style="edgeStyle=orthogonalEdgeStyle;rounded=0;orthogonalLoop=1;jettySize=auto;html=1;exitX=0;exitY=0.75;exitDx=0;exitDy=0;entryX=1;entryY=0.75;entryDx=0;entryDy=0;" edge="1" parent="1" source="pyoUP8Q9Z5OEXJ31vPSe-15" target="pyoUP8Q9Z5OEXJ31vPSe-11">
          <mxGeometry relative="1" as="geometry" />
        </mxCell>
        <mxCell id="pyoUP8Q9Z5OEXJ31vPSe-15" value="&lt;span style=&quot;font-size: 16px;&quot;&gt;Destination for Divider(Testbench)&lt;/span&gt;" style="whiteSpace=wrap;html=1;aspect=fixed;" vertex="1" parent="1">
          <mxGeometry x="1970" y="-920" width="185" height="185" as="geometry" />
        </mxCell>
        <mxCell id="pyoUP8Q9Z5OEXJ31vPSe-16" value="&lt;font style=&quot;font-size: 18px;&quot;&gt;src_valid&lt;/font&gt;" style="text;html=1;align=center;verticalAlign=middle;resizable=0;points=[];autosize=1;strokeColor=none;fillColor=none;" vertex="1" parent="1">
          <mxGeometry x="1470" y="-907" width="90" height="40" as="geometry" />
        </mxCell>
        <mxCell id="pyoUP8Q9Z5OEXJ31vPSe-17" value="&lt;font style=&quot;font-size: 18px;&quot;&gt;src_ready&lt;/font&gt;" style="text;html=1;align=center;verticalAlign=middle;resizable=0;points=[];autosize=1;strokeColor=none;fillColor=none;" vertex="1" parent="1">
          <mxGeometry x="1465" y="-817" width="100" height="40" as="geometry" />
        </mxCell>
        <mxCell id="pyoUP8Q9Z5OEXJ31vPSe-18" value="&lt;font style=&quot;font-size: 18px;&quot;&gt;dest_ready&lt;/font&gt;" style="text;html=1;align=center;verticalAlign=middle;resizable=0;points=[];autosize=1;strokeColor=none;fillColor=none;" vertex="1" parent="1">
          <mxGeometry x="1820" y="-817" width="110" height="40" as="geometry" />
        </mxCell>
        <mxCell id="pyoUP8Q9Z5OEXJ31vPSe-19" value="&lt;font style=&quot;font-size: 18px;&quot;&gt;dest_valid&lt;/font&gt;" style="text;html=1;align=center;verticalAlign=middle;resizable=0;points=[];autosize=1;strokeColor=none;fillColor=none;" vertex="1" parent="1">
          <mxGeometry x="1825" y="-907" width="100" height="40" as="geometry" />
        </mxCell>
        <mxCell id="pyoUP8Q9Z5OEXJ31vPSe-20" value="&lt;b&gt;&lt;font style=&quot;font-size: 20px;&quot;&gt;TOP LEVEL DIAGRAM&lt;/font&gt;&lt;/b&gt;" style="text;html=1;align=center;verticalAlign=middle;resizable=0;points=[];autosize=1;strokeColor=none;fillColor=none;" vertex="1" parent="1">
          <mxGeometry x="1615" y="-520" width="230" height="40" as="geometry" />
        </mxCell>
        <mxCell id="pyoUP8Q9Z5OEXJ31vPSe-21" style="edgeStyle=orthogonalEdgeStyle;rounded=0;orthogonalLoop=1;jettySize=auto;html=1;exitX=0;exitY=0.25;exitDx=0;exitDy=0;entryX=0;entryY=0.25;entryDx=0;entryDy=0;" edge="1" parent="1">
          <mxGeometry relative="1" as="geometry">
            <mxPoint x="1637.4999999999998" y="-413.75" as="targetPoint" />
            <mxPoint x="1455" y="-414" as="sourcePoint" />
          </mxGeometry>
        </mxCell>
        <mxCell id="pyoUP8Q9Z5OEXJ31vPSe-22" style="edgeStyle=orthogonalEdgeStyle;rounded=0;orthogonalLoop=1;jettySize=auto;html=1;exitX=1;exitY=0.25;exitDx=0;exitDy=0;" edge="1" parent="1">
          <mxGeometry relative="1" as="geometry">
            <mxPoint x="1972.5" y="-369.91666666666674" as="targetPoint" />
            <mxPoint x="1820" y="-370" as="sourcePoint" />
          </mxGeometry>
        </mxCell>
        <mxCell id="pyoUP8Q9Z5OEXJ31vPSe-23" value="&lt;span style=&quot;font-size: 16px;&quot;&gt;Divider&lt;/span&gt;" style="whiteSpace=wrap;html=1;aspect=fixed;" vertex="1" parent="1">
          <mxGeometry x="1637.5" y="-440" width="185" height="185" as="geometry" />
        </mxCell>
        <mxCell id="pyoUP8Q9Z5OEXJ31vPSe-24" style="edgeStyle=orthogonalEdgeStyle;rounded=0;orthogonalLoop=1;jettySize=auto;html=1;exitX=0;exitY=0.25;exitDx=0;exitDy=0;entryX=0;entryY=0.25;entryDx=0;entryDy=0;" edge="1" parent="1">
          <mxGeometry relative="1" as="geometry">
            <mxPoint x="1638" y="-364" as="targetPoint" />
            <mxPoint x="1455" y="-364" as="sourcePoint" />
          </mxGeometry>
        </mxCell>
        <mxCell id="pyoUP8Q9Z5OEXJ31vPSe-25" style="edgeStyle=orthogonalEdgeStyle;rounded=0;orthogonalLoop=1;jettySize=auto;html=1;exitX=0;exitY=0.25;exitDx=0;exitDy=0;entryX=0;entryY=0.25;entryDx=0;entryDy=0;" edge="1" parent="1">
          <mxGeometry relative="1" as="geometry">
            <mxPoint x="1638" y="-334" as="targetPoint" />
            <mxPoint x="1455" y="-334" as="sourcePoint" />
          </mxGeometry>
        </mxCell>
        <mxCell id="pyoUP8Q9Z5OEXJ31vPSe-26" style="edgeStyle=orthogonalEdgeStyle;rounded=0;orthogonalLoop=1;jettySize=auto;html=1;exitX=0;exitY=0.25;exitDx=0;exitDy=0;entryX=0;entryY=0.25;entryDx=0;entryDy=0;" edge="1" parent="1">
          <mxGeometry relative="1" as="geometry">
            <mxPoint x="1638" y="-304" as="targetPoint" />
            <mxPoint x="1455" y="-304" as="sourcePoint" />
          </mxGeometry>
        </mxCell>
        <mxCell id="pyoUP8Q9Z5OEXJ31vPSe-27" style="edgeStyle=orthogonalEdgeStyle;rounded=0;orthogonalLoop=1;jettySize=auto;html=1;exitX=1;exitY=0.25;exitDx=0;exitDy=0;" edge="1" parent="1">
          <mxGeometry relative="1" as="geometry">
            <mxPoint x="1974.5" y="-339.66666666666674" as="targetPoint" />
            <mxPoint x="1822.5" y="-340" as="sourcePoint" />
          </mxGeometry>
        </mxCell>
        <mxCell id="pyoUP8Q9Z5OEXJ31vPSe-28" style="edgeStyle=orthogonalEdgeStyle;rounded=0;orthogonalLoop=1;jettySize=auto;html=1;exitX=1;exitY=0.25;exitDx=0;exitDy=0;" edge="1" parent="1">
          <mxGeometry relative="1" as="geometry">
            <mxPoint x="1975" y="-303.66666666666674" as="targetPoint" />
            <mxPoint x="1823" y="-304" as="sourcePoint" />
          </mxGeometry>
        </mxCell>
        <mxCell id="pyoUP8Q9Z5OEXJ31vPSe-29" value="" style="endArrow=none;html=1;rounded=0;" edge="1" parent="1">
          <mxGeometry width="50" height="50" relative="1" as="geometry">
            <mxPoint x="1525" y="-400" as="sourcePoint" />
            <mxPoint x="1545" y="-430" as="targetPoint" />
          </mxGeometry>
        </mxCell>
        <mxCell id="pyoUP8Q9Z5OEXJ31vPSe-30" value="" style="endArrow=none;html=1;rounded=0;" edge="1" parent="1">
          <mxGeometry width="50" height="50" relative="1" as="geometry">
            <mxPoint x="1525" y="-350" as="sourcePoint" />
            <mxPoint x="1545" y="-380" as="targetPoint" />
          </mxGeometry>
        </mxCell>
        <mxCell id="pyoUP8Q9Z5OEXJ31vPSe-31" value="" style="endArrow=none;html=1;rounded=0;" edge="1" parent="1">
          <mxGeometry width="50" height="50" relative="1" as="geometry">
            <mxPoint x="1637.5" y="-260" as="sourcePoint" />
            <mxPoint x="1675" y="-290" as="targetPoint" />
          </mxGeometry>
        </mxCell>
        <mxCell id="pyoUP8Q9Z5OEXJ31vPSe-32" value="" style="endArrow=none;html=1;rounded=0;" edge="1" parent="1">
          <mxGeometry width="50" height="50" relative="1" as="geometry">
            <mxPoint x="1638" y="-310" as="sourcePoint" />
            <mxPoint x="1675" y="-290" as="targetPoint" />
          </mxGeometry>
        </mxCell>
        <mxCell id="pyoUP8Q9Z5OEXJ31vPSe-33" style="edgeStyle=orthogonalEdgeStyle;rounded=0;orthogonalLoop=1;jettySize=auto;html=1;entryX=0.207;entryY=0.995;entryDx=0;entryDy=0;entryPerimeter=0;" edge="1" parent="1" target="pyoUP8Q9Z5OEXJ31vPSe-23">
          <mxGeometry relative="1" as="geometry">
            <mxPoint x="1678" y="-244" as="targetPoint" />
            <mxPoint x="1675" y="-220" as="sourcePoint" />
          </mxGeometry>
        </mxCell>
        <mxCell id="pyoUP8Q9Z5OEXJ31vPSe-34" value="&lt;font style=&quot;font-size: 18px;&quot;&gt;rst_n&lt;/font&gt;" style="text;html=1;align=center;verticalAlign=middle;resizable=0;points=[];autosize=1;strokeColor=none;fillColor=none;" vertex="1" parent="1">
          <mxGeometry x="1640" y="-210" width="60" height="40" as="geometry" />
        </mxCell>
        <mxCell id="pyoUP8Q9Z5OEXJ31vPSe-35" value="&lt;font style=&quot;font-size: 18px;&quot;&gt;dividend&lt;/font&gt;" style="text;html=1;align=center;verticalAlign=middle;resizable=0;points=[];autosize=1;strokeColor=none;fillColor=none;" vertex="1" parent="1">
          <mxGeometry x="1370" y="-440" width="90" height="40" as="geometry" />
        </mxCell>
        <mxCell id="pyoUP8Q9Z5OEXJ31vPSe-36" value="&lt;font style=&quot;font-size: 18px;&quot;&gt;divisor&lt;/font&gt;" style="text;html=1;align=center;verticalAlign=middle;resizable=0;points=[];autosize=1;strokeColor=none;fillColor=none;" vertex="1" parent="1">
          <mxGeometry x="1365" y="-390" width="80" height="40" as="geometry" />
        </mxCell>
        <mxCell id="pyoUP8Q9Z5OEXJ31vPSe-37" value="&lt;span style=&quot;font-size: 18px;&quot;&gt;src_valid&lt;/span&gt;" style="text;html=1;align=center;verticalAlign=middle;resizable=0;points=[];autosize=1;strokeColor=none;fillColor=none;" vertex="1" parent="1">
          <mxGeometry x="1360" y="-360" width="90" height="40" as="geometry" />
        </mxCell>
        <mxCell id="pyoUP8Q9Z5OEXJ31vPSe-38" value="&lt;span style=&quot;font-size: 18px;&quot;&gt;dest_ready&lt;/span&gt;" style="text;html=1;align=center;verticalAlign=middle;resizable=0;points=[];autosize=1;strokeColor=none;fillColor=none;" vertex="1" parent="1">
          <mxGeometry x="1350" y="-330" width="110" height="40" as="geometry" />
        </mxCell>
        <mxCell id="pyoUP8Q9Z5OEXJ31vPSe-39" value="&lt;font style=&quot;font-size: 18px;&quot;&gt;16&lt;/font&gt;" style="text;html=1;align=center;verticalAlign=middle;resizable=0;points=[];autosize=1;strokeColor=none;fillColor=none;" vertex="1" parent="1">
          <mxGeometry x="1526" y="-460" width="40" height="40" as="geometry" />
        </mxCell>
        <mxCell id="pyoUP8Q9Z5OEXJ31vPSe-40" value="&lt;font style=&quot;font-size: 18px;&quot;&gt;16&lt;/font&gt;" style="text;html=1;align=center;verticalAlign=middle;resizable=0;points=[];autosize=1;strokeColor=none;fillColor=none;" vertex="1" parent="1">
          <mxGeometry x="1526" y="-410" width="40" height="40" as="geometry" />
        </mxCell>
        <mxCell id="pyoUP8Q9Z5OEXJ31vPSe-41" value="" style="endArrow=none;html=1;rounded=0;" edge="1" parent="1">
          <mxGeometry width="50" height="50" relative="1" as="geometry">
            <mxPoint x="1866" y="-355" as="sourcePoint" />
            <mxPoint x="1886" y="-385" as="targetPoint" />
          </mxGeometry>
        </mxCell>
        <mxCell id="pyoUP8Q9Z5OEXJ31vPSe-42" value="&lt;font style=&quot;font-size: 18px;&quot;&gt;16&lt;/font&gt;" style="text;html=1;align=center;verticalAlign=middle;resizable=0;points=[];autosize=1;strokeColor=none;fillColor=none;" vertex="1" parent="1">
          <mxGeometry x="1865" y="-410" width="40" height="40" as="geometry" />
        </mxCell>
        <mxCell id="pyoUP8Q9Z5OEXJ31vPSe-43" value="&lt;font style=&quot;font-size: 18px;&quot;&gt;quotient&lt;/font&gt;" style="text;html=1;align=center;verticalAlign=middle;resizable=0;points=[];autosize=1;strokeColor=none;fillColor=none;" vertex="1" parent="1">
          <mxGeometry x="1968" y="-390" width="90" height="40" as="geometry" />
        </mxCell>
        <mxCell id="pyoUP8Q9Z5OEXJ31vPSe-44" value="&lt;font style=&quot;font-size: 18px;&quot;&gt;dest_valid&lt;/font&gt;" style="text;html=1;align=center;verticalAlign=middle;resizable=0;points=[];autosize=1;strokeColor=none;fillColor=none;" vertex="1" parent="1">
          <mxGeometry x="1970" y="-360" width="100" height="40" as="geometry" />
        </mxCell>
        <mxCell id="pyoUP8Q9Z5OEXJ31vPSe-45" value="&lt;font style=&quot;font-size: 18px;&quot;&gt;src_ready&lt;/font&gt;" style="text;html=1;align=center;verticalAlign=middle;resizable=0;points=[];autosize=1;strokeColor=none;fillColor=none;" vertex="1" parent="1">
          <mxGeometry x="1970" y="-330" width="100" height="40" as="geometry" />
        </mxCell>
        <mxCell id="pyoUP8Q9Z5OEXJ31vPSe-46" style="edgeStyle=orthogonalEdgeStyle;rounded=0;orthogonalLoop=1;jettySize=auto;html=1;exitX=1;exitY=0.25;exitDx=0;exitDy=0;" edge="1" parent="1">
          <mxGeometry relative="1" as="geometry">
            <mxPoint x="1974.5" y="-413.66666666666674" as="targetPoint" />
            <mxPoint x="1822.5" y="-414" as="sourcePoint" />
          </mxGeometry>
        </mxCell>
        <mxCell id="pyoUP8Q9Z5OEXJ31vPSe-47" value="" style="endArrow=none;html=1;rounded=0;" edge="1" parent="1">
          <mxGeometry width="50" height="50" relative="1" as="geometry">
            <mxPoint x="1864.5" y="-400" as="sourcePoint" />
            <mxPoint x="1884.5" y="-430" as="targetPoint" />
          </mxGeometry>
        </mxCell>
        <mxCell id="pyoUP8Q9Z5OEXJ31vPSe-48" value="&lt;font style=&quot;font-size: 18px;&quot;&gt;16&lt;/font&gt;" style="text;html=1;align=center;verticalAlign=middle;resizable=0;points=[];autosize=1;strokeColor=none;fillColor=none;" vertex="1" parent="1">
          <mxGeometry x="1865.5" y="-460" width="40" height="40" as="geometry" />
        </mxCell>
        <mxCell id="pyoUP8Q9Z5OEXJ31vPSe-49" value="&lt;font style=&quot;font-size: 18px;&quot;&gt;remainder&lt;/font&gt;" style="text;html=1;align=center;verticalAlign=middle;resizable=0;points=[];autosize=1;strokeColor=none;fillColor=none;" vertex="1" parent="1">
          <mxGeometry x="1970" y="-430" width="100" height="40" as="geometry" />
        </mxCell>
        <mxCell id="pyoUP8Q9Z5OEXJ31vPSe-51" value="quotient" style="text;html=1;align=center;verticalAlign=middle;resizable=0;points=[];autosize=1;strokeColor=none;fillColor=none;" vertex="1" parent="1">
          <mxGeometry x="2445" y="368" width="70" height="30" as="geometry" />
        </mxCell>
        <mxCell id="pyoUP8Q9Z5OEXJ31vPSe-52" value="remainder" style="text;html=1;align=center;verticalAlign=middle;resizable=0;points=[];autosize=1;strokeColor=none;fillColor=none;" vertex="1" parent="1">
          <mxGeometry x="2440" y="408" width="80" height="30" as="geometry" />
        </mxCell>
      </root>
    </mxGraphModel>
  </diagram>
</mxfile>
